<svg width="1100" height="700" viewBox="0 0 110 70" fill="none" xmlns="http://www.w3.org/2000/svg">
    <rect width="110" height="70" fill="#E31119" />
    <rect x="22" width="10" height="70" fill="black" />
    <circle cx="27" cy="30" r="8" stroke="#FFF500" />
    <circle cx="27" cy="29" r="11" fill="white" stroke="black" stroke-width="1.5" />
    <circle cx="27" cy="29" r="11" stroke="#FFF500" />
    <path d="M15.5 40C17.5 36.5 22 35 26 35L21.5 27.5C18.5 30 14 33 15.5 40Z" fill="black" stroke="black" stroke-width="0.5" />
    <path d="M21.37 28.2552L25.1306 34.5229C21.6868 34.7035 17.9569 35.9651 15.7857 38.6913C15.4543 35.9543 16.1423 33.9433 17.2265 32.3429C18.2968 30.7629 19.7528 29.5749 21.1061 28.4707C21.1945 28.3986 21.2826 28.3267 21.37 28.2552Z" fill="black" stroke="#FFF500" />
    <path d="M31 27L27 33.5L22.5 26.5C22.5 26.5 27 20 27 5C27 20.5 31 27 31 27Z" fill="black" stroke="black" stroke-width="0.5" stroke-linecap="round" stroke-linejoin="round" />
    <path d="M26.9552 13.626C27.343 17.0957 27.9296 19.8492 28.5186 21.9476C29.025 23.7517 29.533 25.0707 29.9174 25.9437C30.1096 26.3802 30.2709 26.705 30.3856 26.9231C30.3976 26.946 30.4091 26.9677 30.4201 26.9883L26.9908 32.561L23.0928 26.4976C23.1026 26.4814 23.1127 26.4645 23.1232 26.4469C23.2523 26.2296 23.4339 25.9065 23.6503 25.4736C24.0833 24.6077 24.6555 23.3029 25.226 21.528C25.8736 19.5133 26.5185 16.8944 26.9552 13.626Z" stroke="#FFF500" stroke-linecap="round" stroke-linejoin="round" />
    <path d="M28 35C34 38 39 36 42 34C37 33 34 30 32 28C31 29.8333 28.8 33.8 28 35Z" fill="black" stroke="black" stroke-width="0.5" />
    <path d="M32.1188 28.8243C33.9555 30.6422 36.6232 33.0742 40.7123 34.2072C37.8533 35.8311 33.6624 37.0489 28.7246 34.7925C29.5887 33.3906 31.1594 30.5722 32.1188 28.8243Z" fill="black" stroke="#FFF500" />
</svg>